<svg xmlns="http://www.w3.org/2000/svg" width="1024" height="1024" viewBox="0 0 1024 1024" version="1.1"><path d="M 506.446 203.126 C 486.975 215.431, 461.021 240.905, 447.266 261.212 C 443.464 266.826, 440.226 270.658, 439.594 270.292 C 438.992 269.944, 436.700 268.445, 434.500 266.960 C 421.515 258.194, 396.687 248.351, 380.399 245.510 C 366.088 243.015, 366.358 242.934, 362.809 250.750 C 358.879 259.406, 354.454 276.918, 353.077 289.262 C 351.648 302.082, 351.819 324.337, 353.433 335.500 C 354.149 340.450, 354.579 344.779, 354.389 345.120 C 354.199 345.460, 352.121 345.364, 349.772 344.904 C 341.915 343.368, 316.782 342.713, 307.950 343.813 C 303.247 344.399, 296.774 345.861, 293.566 347.061 L 287.732 349.244 288.263 360.372 C 289.479 385.819, 298.957 412.974, 314.850 436.542 C 339.176 472.616, 376.968 497.512, 422 507.129 C 436.913 510.314, 461.934 510.301, 476.972 507.100 C 488.648 504.615, 496.644 502.120, 505.350 498.242 C 510.619 495.896, 511.513 495.767, 514.350 496.946 C 523.160 500.607, 540.519 506.048, 548.500 507.649 C 559.440 509.845, 585.681 510.098, 597 508.117 C 648.330 499.134, 690.642 469.171, 717.201 423 C 725.618 408.366, 733.183 383.677, 735.128 364.487 C 736.605 349.917, 736.211 348.882, 728.343 346.683 C 712.657 342.300, 690.818 341.828, 671.936 345.466 L 668.373 346.153 669.827 337.326 C 671.632 326.372, 671.830 296.289, 670.165 286 C 668.348 274.768, 664.221 259.410, 660.828 251.250 C 658.090 244.664, 657.554 244, 654.979 244 C 638.788 244, 610.234 253.661, 592.342 265.194 C 588.579 267.620, 584.996 269.909, 584.379 270.281 C 583.706 270.688, 581.758 268.528, 579.498 264.866 C 571.445 251.819, 554.607 232.871, 538.500 218.733 C 534.037 214.815, 513.137 200, 512.073 200 C 511.698 200, 509.166 201.407, 506.446 203.126 M 500.778 230.485 C 485.406 242.801, 464.392 266.611, 457.299 279.751 L 455.544 283.002 464.107 291.751 C 475.455 303.345, 480.451 309.493, 488.323 321.547 C 496.018 333.331, 503.700 348.777, 508.316 361.747 L 511.607 370.994 513.442 365.747 C 523.803 336.125, 538.100 313.020, 559.776 290.869 L 568.221 282.238 562.939 274.369 C 552.086 258.202, 538.686 243.558, 522.415 230.082 C 517.048 225.637, 512.367 222, 512.013 222 C 511.659 222, 506.603 225.818, 500.778 230.485 M 375.940 268.183 C 370.117 289.610, 369.561 321.581, 374.619 344.132 L 376.107 350.764 385.068 353.970 C 394.401 357.309, 414.106 366.986, 417.400 369.848 C 419.236 371.443, 419.279 371.363, 418.655 367.500 C 416.032 351.263, 417.192 333.035, 422.022 314.585 C 424.701 304.353, 428.822 292.845, 430.356 291.310 C 432.110 289.556, 430.282 287.487, 422.489 282.407 C 409.911 274.209, 394.008 267.476, 380.307 264.548 C 377.217 263.888, 377.075 264.006, 375.940 268.183 M 636.186 266.014 C 622.343 269.663, 604.239 278.235, 594.007 285.986 C 591.661 287.764, 591.593 288.070, 592.858 291.187 C 600.474 309.959, 603.192 319.850, 605.037 335.500 C 606.131 344.783, 605.807 359.452, 604.322 367.889 L 603.725 371.277 608.113 368.550 C 614.956 364.297, 633.791 355.484, 641.252 353.044 C 646.385 351.365, 648.123 350.316, 648.505 348.668 C 653.040 329.060, 654.202 306.867, 651.603 289.500 C 649.367 274.569, 646.719 264.553, 644.937 264.295 C 644.146 264.180, 640.209 264.954, 636.186 266.014 M 443.182 310.250 C 439.029 322.470, 438.175 326.468, 436.989 339.250 C 435.834 351.692, 436.962 365.202, 440.160 377.248 L 442.218 384.995 457.458 400.248 C 473.657 416.460, 485.234 430.415, 494.694 445.134 L 500.500 454.168 500.808 436.834 C 501.238 412.621, 498.940 395.642, 492.423 374.900 C 486.048 354.608, 478.541 339.761, 466.195 323.026 C 460.442 315.227, 448.001 301, 446.935 301 C 446.600 301, 444.912 305.163, 443.182 310.250 M 570.327 307.257 C 545.506 332.652, 528.939 367.958, 523.521 407 C 521.691 420.193, 520.368 457.042, 521.780 455.500 C 522.284 454.950, 525.523 450.225, 528.977 445 C 538.932 429.944, 549.241 417.681, 566.053 400.900 C 581.462 385.519, 581.704 385.209, 583.269 378.900 C 588.893 356.224, 587.975 332.896, 580.607 311.295 C 576.744 299.967, 577.255 300.168, 570.327 307.257 M 311.500 362.727 C 309.850 362.962, 308.123 363.519, 307.661 363.966 C 306.604 364.989, 309.386 378.992, 312.733 389.500 C 319.022 409.243, 331.753 430.313, 346.636 445.612 C 367.972 467.544, 394.911 482.150, 425.788 488.528 C 435.693 490.574, 461.820 490.553, 471.500 488.491 C 475.349 487.671, 478.949 486.977, 479.500 486.948 C 480.050 486.920, 475.775 485.207, 470 483.143 C 446.138 474.611, 425.335 461.308, 406.447 442.501 C 386.032 422.174, 370.710 397.655, 362.508 372.187 C 360.525 366.027, 360.271 365.886, 347.071 363.619 C 338.369 362.124, 319.124 361.641, 311.500 362.727 M 678 363.567 C 663.157 365.965, 664.397 364.980, 659.079 378.595 C 643.433 418.649, 616.858 449.890, 581.052 470.323 C 571.174 475.960, 554.781 483.230, 549.170 484.463 C 547.439 484.843, 545.790 485.531, 545.505 485.993 C 543.727 488.868, 579.126 491.174, 592.821 489.075 C 646.504 480.846, 691.849 443.817, 709.644 393.672 C 712.840 384.668, 715.984 371.401, 715.993 366.886 C 716 363.343, 715.908 363.259, 711.360 362.636 C 703.910 361.615, 687.197 362.081, 678 363.567 M 383.649 376.750 C 396.851 408.748, 426.258 440.901, 456.853 456.790 C 466.181 461.634, 484.694 468.639, 485.648 467.685 C 486.883 466.451, 469.418 441.305, 458.158 428.106 C 448.847 417.191, 432.117 401.805, 420.500 393.472 C 413.162 388.209, 385.104 373, 382.731 373 C 382.385 373, 382.798 374.688, 383.649 376.750 M 635 375.393 C 609.307 386.178, 581.278 408.751, 558.097 437.324 C 550.768 446.359, 536.726 467.059, 537.441 467.775 C 538.365 468.698, 555.495 462.773, 563.478 458.769 C 587.405 446.767, 608.036 428.448, 625.161 404 C 632.448 393.597, 643.180 372.931, 641.237 373.042 C 640.832 373.066, 638.025 374.123, 635 375.393 M 384.205 562.130 C 356.590 566.172, 336.162 588.654, 334.346 617 C 331.657 658.978, 370.639 688.670, 411 675.386 C 444.543 664.346, 460.474 625.489, 444.756 593.053 C 440.550 584.374, 428.822 572.442, 420.250 568.122 C 409.800 562.854, 395.497 560.477, 384.205 562.130 M 739.454 562.390 C 722.915 565.658, 712 577.495, 712 592.162 C 712 600.453, 713.639 605.308, 718.178 610.465 C 722.991 615.932, 729.052 619.339, 745.698 625.931 C 766.645 634.227, 771 638.144, 771 648.689 C 771 656.294, 767.682 661.862, 761 665.470 C 756.217 668.053, 754.457 668.441, 747.500 668.451 C 741.227 668.460, 738.363 667.952, 734.230 666.099 C 726.854 662.792, 719.902 654.934, 716.948 646.564 C 715.055 641.204, 714.232 640, 712.458 640 C 710.533 640, 710.212 640.701, 709.642 646.147 C 709.289 649.527, 709 655.112, 709 658.558 C 709 664.395, 709.222 665.010, 712.250 667.571 C 721.419 675.325, 739.175 679.917, 752.713 678.034 C 768.552 675.831, 781.537 666.656, 785.651 654.762 C 788.236 647.288, 788.053 635.788, 785.263 630.432 C 780.702 621.672, 769.280 614.593, 748 607.336 C 740.733 604.857, 732.963 599.987, 730.913 596.625 C 728.050 591.929, 728.311 583.478, 731.463 578.839 C 738.730 568.145, 760.302 568.297, 769.454 579.107 C 771.034 580.973, 773.621 585.342, 775.203 588.816 C 777.314 593.450, 778.535 595.043, 779.790 594.800 C 781.241 594.520, 781.517 593.111, 781.614 585.485 C 781.677 580.543, 781.452 574.298, 781.114 571.607 C 780.501 566.718, 780.496 566.713, 775.500 565.371 C 769.614 563.790, 751.592 561.002, 748 561.116 C 746.625 561.160, 742.779 561.733, 739.454 562.390 M 236 565.040 C 236 565.612, 237.800 567.792, 240 569.885 L 244 573.690 244 618.798 C 244 651.147, 243.669 664.633, 242.828 666.478 C 242.184 667.892, 240.159 669.975, 238.328 671.106 C 234.434 673.513, 234.132 674.747, 237.250 675.519 C 238.488 675.826, 255.379 675.947, 274.787 675.788 C 303.784 675.551, 310.229 675.250, 310.942 674.095 C 312.165 672.115, 315.284 651.182, 314.615 649.440 C 314.311 648.648, 313.036 648.004, 311.781 648.009 C 310.033 648.017, 309.033 649.089, 307.500 652.602 C 304.587 659.278, 298.463 664.530, 291.882 665.998 C 284.901 667.555, 264.592 666.998, 262.797 665.200 C 261.773 664.174, 261.500 654.571, 261.500 619.602 C 261.500 570.923, 261.406 571.712, 267.594 568.379 C 274.761 564.520, 273.145 564, 253.969 564 C 242.195 564, 236 564.359, 236 565.040 M 465.599 564.840 C 465.223 565.448, 463 588.376, 463 591.645 C 463 591.840, 464.254 592, 465.787 592 C 468.217 592, 468.956 591.204, 471.565 585.771 C 476.220 576.076, 482.138 573.016, 496.250 573.006 L 504 573 504 618.596 C 504 668.655, 504.147 667.375, 497.898 671.562 C 496.308 672.628, 495.154 673.950, 495.335 674.500 C 495.530 675.092, 501.950 675.617, 511.082 675.786 C 532.231 676.179, 534.366 675.493, 527.053 670.654 C 524.254 668.802, 522.801 666.944, 522.058 664.271 C 521.402 661.909, 521.009 644.109, 521.006 616.634 L 521 572.767 530.832 573.162 C 544.720 573.720, 549.206 576.067, 554 585.284 C 557.217 591.469, 560.150 594.183, 561.816 592.517 C 562.541 591.792, 562.105 565.978, 561.347 564.752 C 560.704 563.712, 466.242 563.799, 465.599 564.840 M 581.426 565.120 C 581.035 565.752, 582.103 567.313, 583.873 568.698 C 585.600 570.049, 587.570 572.132, 588.251 573.327 C 589.142 574.890, 589.646 585.609, 590.047 611.500 C 590.588 646.471, 590.672 647.668, 592.987 653.373 C 598.004 665.730, 609.493 674.426, 624.928 677.548 C 651.269 682.877, 675.427 668.111, 680.024 643.876 C 680.561 641.044, 681 624.824, 681 607.831 C 681 573.843, 681.260 572.087, 686.899 568.072 C 688.617 566.848, 689.767 565.431, 689.453 564.924 C 688.676 563.666, 662.286 563.729, 661.506 564.990 C 661.170 565.534, 662.671 567.672, 664.843 569.740 C 668.412 573.139, 668.859 574.129, 669.490 580.044 C 669.874 583.643, 670.011 599.393, 669.795 615.044 C 669.434 641.054, 669.220 643.949, 667.307 648.721 C 664.180 656.521, 659.760 661.464, 652.804 664.940 C 647.465 667.608, 645.628 668, 638.466 668 C 625.949 668, 618.192 664.422, 612.692 656.110 C 607.429 648.158, 607 644.516, 607 607.796 L 607 573.955 611 569.616 C 613.200 567.229, 615 564.989, 615 564.638 C 615 563.448, 582.168 563.919, 581.426 565.120 M 379.268 573.896 C 369.894 577.376, 364.133 582.832, 358.914 593.171 C 346.159 618.437, 354.836 653.293, 376.619 664.300 C 387.038 669.564, 400.468 669.863, 409.922 665.040 C 418.753 660.534, 427.046 648.586, 430.076 636 C 431.703 629.244, 431.644 612.883, 429.966 605.769 C 426.883 592.689, 418.153 581.170, 407.260 575.807 C 398.844 571.664, 387.387 570.882, 379.268 573.896 M 676.355 722.039 C 666.321 724.025, 656.941 731.487, 652.675 740.878 C 649.539 747.779, 649.648 761.571, 652.894 768.779 C 656.002 775.681, 663.533 782.487, 670.279 784.490 C 680.035 787.387, 695.561 785.816, 705.062 780.969 C 709.343 778.784, 709.968 777.067, 709.986 767.424 C 709.998 761.179, 710.293 760.073, 712.500 758 C 713.875 756.708, 715 755.167, 715 754.576 C 715 753.334, 692.484 753.181, 691.255 754.415 C 690.840 754.831, 691.446 755.940, 692.603 756.877 C 695.893 759.545, 697 762.427, 697 768.323 C 697 774.990, 695.077 777.734, 689.500 779.024 C 682.518 780.640, 675.797 778.596, 670.803 773.339 C 660.253 762.233, 662.798 737.581, 675.280 729.971 C 678.909 727.758, 687.992 727.286, 692.675 729.066 C 696.079 730.361, 701.293 735.878, 702.995 739.988 C 704.284 743.100, 706.683 743.991, 707.567 741.686 C 707.845 740.963, 707.718 736.842, 707.286 732.527 L 706.500 724.684 698 722.890 C 688.881 720.966, 682.955 720.733, 676.355 722.039 M 307 723.695 C 307 724.078, 308.157 725.598, 309.571 727.074 L 312.142 729.758 312.321 753.965 L 312.500 778.173 309.588 780.678 C 307.251 782.688, 306.955 783.360, 308.088 784.087 C 308.865 784.584, 319.143 784.881, 330.929 784.746 L 352.357 784.500 353.038 781.952 C 353.413 780.550, 354.040 776.838, 354.432 773.702 C 355.072 768.578, 354.958 768, 353.308 768 C 352.246 768, 350.435 769.679, 349.012 771.980 C 347.597 774.271, 345.310 776.393, 343.627 776.980 C 339.562 778.397, 327.674 778.274, 326.200 776.800 C 324.584 775.184, 324.505 732.793, 326.113 729.789 C 326.725 728.646, 328.412 726.665, 329.863 725.387 L 332.500 723.063 319.750 723.032 C 312.738 723.014, 307 723.313, 307 723.695 M 380.038 725.889 L 383.500 728.777 383.805 751.602 C 383.972 764.156, 383.848 775.470, 383.528 776.743 C 383.209 778.017, 381.813 780.045, 380.427 781.250 C 378.131 783.247, 378.067 783.504, 379.704 784.150 C 382.398 785.214, 400.795 785.142, 401.460 784.065 C 401.778 783.550, 400.905 781.996, 399.519 780.610 L 397 778.091 397 753.930 L 397 729.770 400.695 726.385 L 404.391 723 390.483 723 L 376.576 723 380.038 725.889 M 423 723.702 C 423 724.089, 424.325 725.776, 425.943 727.452 C 427.797 729.371, 433.333 740.451, 440.889 757.362 C 447.490 772.137, 453.028 784.355, 453.196 784.515 C 453.363 784.675, 454.779 784.962, 456.343 785.153 C 459.140 785.494, 459.354 785.139, 469.360 763.500 C 482.378 735.351, 485.895 728.979, 489.785 726.500 C 491.511 725.400, 492.940 724.163, 492.961 723.750 C 492.983 723.337, 488.050 723, 482 723 C 475.950 723, 471 723.286, 471 723.635 C 471 723.985, 472.159 725.344, 473.575 726.657 C 475.716 728.642, 476.033 729.586, 475.457 732.272 C 474.463 736.904, 460.651 768.026, 459.721 767.729 C 458.362 767.295, 444.795 735.890, 444.267 731.955 C 443.865 728.959, 444.197 727.812, 445.881 726.370 C 447.046 725.372, 448 724.206, 448 723.778 C 448 723.350, 442.375 723, 435.500 723 C 428.625 723, 423 723.316, 423 723.702 M 511 723.606 C 511 723.939, 512.125 725.548, 513.500 727.182 L 516 730.153 516 754.122 L 516 778.091 513.481 780.610 C 512.095 781.996, 511.233 783.568, 511.565 784.104 C 512.425 785.497, 534.005 785.010, 533.983 783.598 C 533.973 782.994, 532.848 781.440, 531.483 780.145 L 529 777.790 529 754.430 L 529 731.070 532 727.653 C 533.650 725.774, 535 723.958, 535 723.618 C 535 723.278, 529.600 723, 523 723 C 516.400 723, 511 723.273, 511 723.606 M 563.297 726.792 L 567 730.584 567 754.349 L 567 778.113 563.926 780.921 C 560.047 784.463, 561.120 785, 572.082 785 C 578.369 785, 580 784.698, 580 783.535 C 580 782.730, 579.162 781.622, 578.137 781.073 C 574.532 779.144, 573.942 775.288, 574.227 755.497 L 574.500 736.519 585.436 750.510 C 591.451 758.204, 599.947 769.112, 604.316 774.750 C 611.510 784.033, 612.568 785, 615.523 785 C 617.576 785, 619.011 784.413, 619.393 783.418 C 619.727 782.548, 620 770.653, 620 756.983 C 620 743.174, 620.435 730.985, 620.980 729.553 C 621.519 728.135, 623.094 726.459, 624.480 725.827 C 629.110 723.718, 627.084 723, 616.500 723 C 610.725 723, 606 723.180, 606 723.400 C 606 723.620, 607.575 725.375, 609.500 727.300 L 613 730.800 613 747.600 C 613 756.840, 612.638 763.973, 612.195 763.450 C 611.752 762.928, 610.064 760.759, 608.445 758.630 C 601.817 749.920, 600.087 747.686, 590.621 735.606 L 580.742 723 570.168 723 L 559.594 723 563.297 726.792" stroke="none" fill="#c68570" fill-rule="evenodd"/></svg>