<svg width="1024" height="1024" viewBox="0 0 1024 1024" fill="none" xmlns="http://www.w3.org/2000/svg">
<rect width="1024" height="1024" fill="white"/>
<path fill-rule="evenodd" clip-rule="evenodd" d="M501.63 145.565C461.869 175.342 408.869 236.988 380.78 286.131C373.016 299.716 366.404 308.989 365.114 308.104C363.884 307.262 359.204 303.634 354.711 300.04C328.195 278.827 277.494 255.007 244.233 248.132C215.009 242.095 215.56 241.899 208.313 260.813C200.288 281.76 191.251 324.138 188.439 354.01C185.521 385.034 185.871 438.891 189.166 465.905C190.629 477.883 191.507 488.359 191.119 489.185C190.731 490.007 186.487 489.775 181.69 488.662C165.646 484.945 114.322 483.36 96.2867 486.022C86.6828 487.44 73.4645 490.978 66.9135 493.882L55 499.164L56.0844 526.094C58.5675 587.675 77.9223 653.388 110.377 710.422C160.053 797.72 237.227 857.967 329.185 881.24C359.639 888.947 410.734 888.916 441.442 881.17C465.286 875.156 481.614 869.118 499.392 859.734C510.152 854.056 511.978 853.744 517.771 856.597C535.762 865.457 571.21 878.624 587.508 882.498C609.848 887.812 663.434 888.425 686.549 883.631C791.368 861.892 877.772 789.383 932.008 677.651C949.196 642.237 964.644 582.491 968.616 536.052C971.632 500.793 970.828 498.288 954.761 492.967C922.729 482.36 878.132 481.218 839.573 490.022L832.298 491.684L835.267 470.323C838.953 443.815 839.357 371.016 835.957 346.117C832.246 318.936 823.819 281.77 816.89 262.023C811.299 246.085 810.204 244.478 804.946 244.478C771.883 244.478 713.573 267.857 677.036 295.767C669.352 301.638 662.035 307.177 660.776 308.077C659.401 309.062 655.423 303.835 650.808 294.973C634.363 263.4 599.979 217.547 567.087 183.333C557.973 173.852 515.294 138 513.121 138C512.355 138 507.185 141.405 501.63 145.565ZM490.056 211.772C458.665 241.577 415.753 299.196 401.269 330.994L397.685 338.862L415.171 360.034C438.344 388.091 448.547 402.969 464.622 432.139C480.336 460.656 496.023 498.034 505.449 529.421L512.17 551.799L515.917 539.101C537.075 467.417 566.27 411.504 610.534 357.899L627.78 337.013L616.993 317.97C594.831 278.846 567.467 243.409 534.24 210.797C523.28 200.041 513.722 191.239 512.999 191.239C512.276 191.239 501.951 200.479 490.056 211.772ZM235.127 303C223.236 354.853 222.101 432.221 232.43 486.794L235.468 502.843L253.767 510.601C272.826 518.681 313.065 542.099 319.792 549.025C323.541 552.885 323.629 552.692 322.355 543.343C316.998 504.05 319.367 459.939 329.23 415.291C334.701 390.53 343.116 362.681 346.249 358.967C349.831 354.722 346.098 349.715 330.184 337.422C304.499 317.583 272.024 301.289 244.045 294.204C237.735 292.606 237.445 292.892 235.127 303ZM766.569 297.751C738.301 306.582 701.331 327.326 680.437 346.083C675.646 350.385 675.507 351.126 678.09 358.669C693.643 404.096 699.193 428.032 702.961 465.905C705.195 488.369 704.533 523.867 701.501 544.285L700.281 552.483L709.242 545.884C723.216 535.592 761.679 514.265 776.914 508.36C787.396 504.297 790.946 501.759 791.726 497.771C800.986 450.32 803.359 396.614 798.052 354.586C793.486 318.454 788.078 294.216 784.439 293.591C782.824 293.313 774.784 295.186 766.569 297.751ZM372.441 404.801C363.96 434.372 362.216 444.047 359.794 474.979C357.435 505.089 359.739 537.782 366.269 566.933L370.472 585.68L401.593 622.592C434.673 661.824 458.314 695.595 477.632 731.214L489.488 753.076L490.117 711.129C490.995 652.534 486.303 611.446 472.994 561.251C459.976 512.145 444.646 476.216 419.435 435.718C407.687 416.845 382.281 382.416 380.104 382.416C379.42 382.416 375.973 392.49 372.441 404.801ZM632.08 397.558C581.394 459.012 547.563 544.452 536.499 638.932C532.762 670.858 530.06 760.031 532.944 756.3C533.973 754.969 540.587 743.534 547.64 730.89C567.969 694.455 589.021 664.779 623.352 624.17C654.819 586.949 655.313 586.198 658.509 570.931C669.993 516.056 668.119 459.603 653.073 407.329C645.184 379.916 646.228 380.403 632.08 397.558ZM103.536 531.793C100.167 532.361 96.64 533.709 95.6965 534.791C93.5381 537.267 99.2191 571.153 106.054 596.582C118.897 644.36 144.894 695.348 175.286 732.371C218.856 785.446 273.868 820.792 336.921 836.226C357.147 841.177 410.501 841.127 430.268 836.137C438.128 834.152 445.479 832.473 446.605 832.403C447.728 832.335 438.998 828.189 427.205 823.195C378.477 802.548 335.996 770.355 297.425 724.843C255.736 675.652 224.447 616.317 207.698 554.686C203.649 539.779 203.13 539.437 176.175 533.951C158.405 530.334 119.105 529.165 103.536 531.793ZM851.957 533.826C821.646 539.629 824.178 537.245 813.318 570.193C781.368 667.122 727.1 742.724 653.982 792.171C633.81 805.812 600.334 823.405 588.876 826.389C585.341 827.309 581.974 828.974 581.392 830.092C577.761 837.049 650.048 842.629 678.015 837.55C787.639 817.636 880.237 728.027 916.576 606.678C923.102 584.889 929.523 552.783 929.541 541.857C929.555 533.283 929.368 533.08 920.08 531.573C904.867 529.102 870.738 530.229 851.957 533.826ZM250.87 565.728C277.829 643.162 337.881 720.971 400.358 759.421C419.406 771.144 457.211 788.096 459.159 785.787C461.681 782.801 426.016 721.948 403.023 690.007C384.009 663.593 349.845 626.36 326.122 606.194C311.137 593.458 253.841 556.653 248.995 556.653C248.289 556.653 249.132 560.738 250.87 565.728ZM764.147 562.444C711.68 588.543 654.443 643.169 607.106 712.315C592.139 734.179 563.464 784.272 564.924 786.005C566.811 788.238 601.792 773.9 618.094 764.211C666.955 735.166 709.085 690.835 744.055 631.672C758.936 606.497 780.852 556.486 776.884 556.755C776.057 556.813 770.325 559.371 764.147 562.444Z" fill="black"/>
</svg>
